<?xml version="1.0" encoding="UTF-8" standalone="no"?>
<svg
   xmlns:dc="http://purl.org/dc/elements/1.1/"
   xmlns:cc="http://creativecommons.org/ns#"
   xmlns:rdf="http://www.w3.org/1999/02/22-rdf-syntax-ns#"
   xmlns:svg="http://www.w3.org/2000/svg"
   xmlns="http://www.w3.org/2000/svg"
   xmlns:sodipodi="http://sodipodi.sourceforge.net/DTD/sodipodi-0.dtd"
   xmlns:inkscape="http://www.inkscape.org/namespaces/inkscape"
   width="1920"
   height="230"
   viewBox="0 0 507.99998 60.854167"
   version="1.1"
   id="svg8"
   inkscape:version="1.0.1 (3bc2e813f5, 2020-09-07)"
   sodipodi:docname="logo-1920x230.svg">
  <defs
     id="defs2" />
  <sodipodi:namedview
     id="base"
     pagecolor="#ffffff"
     bordercolor="#666666"
     borderopacity="1.0"
     inkscape:pageopacity="0"
     inkscape:pageshadow="2"
     inkscape:zoom="0.7"
     inkscape:cx="1061.1836"
     inkscape:cy="194.67953"
     inkscape:document-units="px"
     inkscape:current-layer="layer2"
     inkscape:document-rotation="0"
     showgrid="false"
     units="px"
     inkscape:pagecheckerboard="true"
     inkscape:window-width="1920"
     inkscape:window-height="1136"
     inkscape:window-x="0"
     inkscape:window-y="27"
     inkscape:window-maximized="1"
     inkscape:snap-page="false" />
  <metadata
     id="metadata5">
    <rdf:RDF>
      <cc:Work
         rdf:about="">
        <dc:format>image/svg+xml</dc:format>
        <dc:type
           rdf:resource="http://purl.org/dc/dcmitype/StillImage" />
        <dc:title></dc:title>
      </cc:Work>
    </rdf:RDF>
  </metadata>
  <g
     inkscape:groupmode="layer"
     id="layer2"
     inkscape:label="background">
    <rect
       style="fill:#008080;fill-opacity:1;stroke-width:2.46283"
       id="rect908"
       width="508"
       height="61.240685"
       x="1.0158541e-14"
       y="6.8833828e-15" />
    <rect
       style="fill:#008080;fill-opacity:1;stroke-width:0.264583"
       id="rect910"
       width="0.92129385"
       height="1.2879485"
       x="3.9974084"
       y="2.8697839" />
  </g>
  <g
     inkscape:label="Layer 1"
     inkscape:groupmode="layer"
     id="layer1"
     style="display:inline">
    <text
       xml:space="preserve"
       style="font-style:normal;font-weight:normal;font-size:10.5833px;line-height:1.25;font-family:sans-serif;fill:#000000;fill-opacity:1;stroke:none;stroke-width:0.264583"
       x="36.235241"
       y="57.362938"
       id="text12"><tspan
         sodipodi:role="line"
         id="tspan10"
         x="36.235241"
         y="57.362938"
         style="stroke-width:0.264583" /></text>
    <text
       xml:space="preserve"
       style="font-size:50.8px;line-height:1.25;font-family:'Zilla Slab';-inkscape-font-specification:'Zilla Slab';stroke-width:0.264583"
       x="73.628059"
       y="48.080544"
       id="text16"><tspan
         sodipodi:role="line"
         id="tspan14"
         x="73.628059"
         y="48.080544"
         style="font-size:50.8px;stroke-width:0.264583"><tspan
           style="fill:#1a1a1a"
           id="tspan914">de </tspan><tspan
           style="font-style:normal;font-variant:normal;font-weight:bold;font-stretch:normal;font-size:50.8px;font-family:'Zilla Slab';-inkscape-font-specification:'Zilla Slab Bold';fill:#ffffff;fill-opacity:1"
           id="tspan18">data</tspan><tspan
           style="fill:#1a1a1a"
           id="tspan916">verbinders</tspan></tspan></text>
    <g
       data-name="Layer 1"
       id="g6"
       style="fill:#ffffff;fill-opacity:1"
       transform="matrix(1.6507587,0,0,1.619544,9.6373289,6.7190652)">
      <path
         d="m 25.31,23.88 a 1,1 0 0 1 0.13,0.47 0.93,0.93 0 1 1 -0.92,-0.92 0.84,0.84 0 0 1 0.35,0.07 A 13.84,13.84 0 1 0 4.34,23.9 1.43,1.43 0 0 1 4.8,23 0.92,0.92 0 0 0 4.8,21.74 12.4,12.4 0 0 1 3.49,19.6 0.92,0.92 0 0 1 2.88,18 12.24,12.24 0 0 1 3.41,9.51 0.94,0.94 0 0 1 3.17,8.89 0.93,0.93 0 0 1 4.25,7.98 10.27,10.27 0 0 1 4.97,6.98 H 5 v 0 c 0.28,-0.35 0.59,-0.69 0.91,-1 a 12,12 0 0 1 9.7,-3.47 0.92,0.92 0 0 1 1.77,0.3 12.07,12.07 0 0 1 6.38,19.38 1,1 0 0 1 0.13,0.48 0.92,0.92 0 1 1 -0.92,-0.92 0.8,0.8 0 0 1 0.34,0.07 A 11.48,11.48 0 0 0 17.21,3.27 0.94,0.94 0 0 1 16.44,3.68 0.92,0.92 0 0 1 15.55,2.98 11.45,11.45 0 0 0 6.89,5.75 1.42,1.42 0 0 1 7.77,6.24 1,1 0 0 0 9.05,6.33 C 9.25,6.19 9.45,6.07 9.66,5.95 a 0.61,0.61 0 0 1 0,-0.14 0.92,0.92 0 0 1 0.92,-0.92 1,1 0 0 1 0.71,0.34 9.53,9.53 0 0 1 3.14,-0.52 9.65,9.65 0 0 1 6.87,2.84 8.72,8.72 0 0 1 0.64,0.71 0.92,0.92 0 0 1 1,1.43 l 0.15,0.28 v 0 0.08 a 7.19,7.19 0 0 1 0.34,0.75 v 0.07 A 9.77,9.77 0 0 1 22,20.52 1,1 0 0 1 22.13,21 a 0.92,0.92 0 1 1 -0.92,-0.93 1,1 0 0 1 0.35,0.07 9.1,9.1 0 0 0 1.68,-8.14 1.53,1.53 0 0 1 -0.87,0.54 1,1 0 0 0 -0.63,1.1 v 0.28 -0.06 0.23 c 0,0.1 0,0.2 0,0.3 a 7.36,7.36 0 0 1 -1.49,4.43 0.87,0.87 0 0 1 0.17,0.52 0.93,0.93 0 1 1 -0.93,-0.92 0.94,0.94 0 0 1 0.3,0.05 A 6.75,6.75 0 0 0 21,15.88 1.41,1.41 0 0 1 20,16 c -0.31,-0.09 -0.76,0.08 -1.08,0.62 v 0 l -0.33,0.56 a 0.93,0.93 0 0 1 0.16,0.51 0.92,0.92 0 1 1 -0.92,-0.92 1,1 0 0 1 0.3,0 l 0.26,-0.43 a 2.15,2.15 0 0 1 0.66,-0.74 1.3,1.3 0 0 1 1.1,-0.21 0.86,0.86 0 0 0 1.05,-0.63 c 0,-0.1 0,-0.25 0,-0.4 a 5.48,5.48 0 0 0 0,-0.7 1.56,1.56 0 0 1 1.04,-1.66 0.89,0.89 0 0 0 0.61,-0.43 0.67,0.67 0 0 0 0,-0.57 10.63,10.63 0 0 0 -0.46,-1 0.87,0.87 0 0 1 -0.28,0.05 A 0.93,0.93 0 0 1 21.19,9.12 0.9,0.9 0 0 1 21.39,8.55 8.24,8.24 0 0 0 20.88,8 9.16,9.16 0 0 0 11.49,5.81 v 0 A 0.93,0.93 0 0 1 10.57,6.74 0.91,0.91 0 0 1 9.92,6.47 C 9.74,6.58 9.55,6.69 9.38,6.81 A 1.85,1.85 0 0 1 8.33,7.1 1.41,1.41 0 0 1 7.33,6.62 0.91,0.91 0 0 0 6.72,6.31 0.92,0.92 0 0 0 6.08,6.52 v 0 A 12,12 0 0 0 4.76,8.2 0.93,0.93 0 0 1 5,8.84 a 0.92,0.92 0 0 1 -1.09,0.9 11.71,11.71 0 0 0 -0.49,8 0.92,0.92 0 0 1 0.91,0.92 1,1 0 0 1 -0.29,0.67 12.1,12.1 0 0 0 1.25,2 1.51,1.51 0 0 1 -0.11,2.05 0.9,0.9 0 0 0 -0.06,1.24 13.81,13.81 0 0 0 8.72,3.57 0.93,0.93 0 0 1 0.87,-0.62 0.92,0.92 0 1 1 -0.88,1.2 14.37,14.37 0 0 1 -9.09,-3.71 v 0 L 4.24,24.59 A 14.56,14.56 0 0 1 1.13,20 14.52,14.52 0 0 1 1.13,8.77 14.44,14.44 0 0 1 20,1.13 a 14.19,14.19 0 0 1 4.58,3.09 14.09,14.09 0 0 1 3.13,4.58 14.41,14.41 0 0 1 -2.4,15.08 z"
         id="path4"
         style="fill:#ffffff;fill-opacity:1" />
    </g>
  </g>
</svg>
