<?xml version="1.0" encoding="UTF-8" standalone="no"?>
<svg
   xmlns:dc="http://purl.org/dc/elements/1.1/"
   xmlns:cc="http://creativecommons.org/ns#"
   xmlns:rdf="http://www.w3.org/1999/02/22-rdf-syntax-ns#"
   xmlns:svg="http://www.w3.org/2000/svg"
   xmlns="http://www.w3.org/2000/svg"
   xmlns:sodipodi="http://sodipodi.sourceforge.net/DTD/sodipodi-0.dtd"
   xmlns:inkscape="http://www.inkscape.org/namespaces/inkscape"
   width="192"
   height="23"
   viewBox="0 0 50.799998 6.0854167"
   version="1.1"
   id="svg8"
   inkscape:version="1.0.1 (3bc2e813f5, 2020-09-07)"
   sodipodi:docname="logo-192x23.svg">
  <defs
     id="defs2" />
  <sodipodi:namedview
     id="base"
     pagecolor="#ffffff"
     bordercolor="#666666"
     borderopacity="1.0"
     inkscape:pageopacity="0"
     inkscape:pageshadow="2"
     inkscape:zoom="5.6"
     inkscape:cx="51.948912"
     inkscape:cy="20.133227"
     inkscape:document-units="px"
     inkscape:current-layer="text16"
     inkscape:document-rotation="0"
     showgrid="false"
     units="px"
     inkscape:pagecheckerboard="true"
     inkscape:window-width="1920"
     inkscape:window-height="1136"
     inkscape:window-x="0"
     inkscape:window-y="27"
     inkscape:window-maximized="1"
     inkscape:snap-page="false"
     inkscape:snap-grids="false"
     inkscape:snap-to-guides="false" />
  <metadata
     id="metadata5">
    <rdf:RDF>
      <cc:Work
         rdf:about="">
        <dc:format>image/svg+xml</dc:format>
        <dc:type
           rdf:resource="http://purl.org/dc/dcmitype/StillImage" />
        <dc:title></dc:title>
      </cc:Work>
    </rdf:RDF>
  </metadata>
  <g
     inkscape:label="Layer 1"
     inkscape:groupmode="layer"
     id="layer1"
     style="display:inline">
    <text
       xml:space="preserve"
       style="font-style:normal;font-weight:normal;font-size:10.5833px;line-height:1.25;font-family:sans-serif;fill:#000000;fill-opacity:1;stroke:none;stroke-width:0.264583"
       x="36.235241"
       y="57.362938"
       id="text12"><tspan
         sodipodi:role="line"
         id="tspan10"
         x="36.235241"
         y="57.362938"
         style="stroke-width:0.264583" /></text>
    <g
       aria-label="de dataverbinders"
       id="text16"
       style="font-size:6.35px;line-height:1.25;font-family:'Zilla Slab';-inkscape-font-specification:'Zilla Slab';stroke-width:0.0264583">
      <path
         d="m 3.470658,5.1953583 h -1.09855 v -0.5461 q -0.127,0.24765 -0.3683,0.4318 -0.23495,0.1778 -0.6223,0.1778 -0.55879996,0 -0.88899996,-0.381 -0.32384999,-0.381 -0.32384999,-1.04775 0,-0.6096 0.30479999,-1.07315 0.31115,-0.4699 0.97154996,-0.4699 0.33655,0 0.56515,0.1397 0.23495,0.13335 0.36195,0.36195 v -1.44145 H 1.756158 V 0.82655834 h 1.2954 V 4.6746583 h 0.4191 z m -1.09855,-1.3716 v -0.2159 q -0.00635,-0.3556 -0.2159,-0.56515 -0.20955,-0.20955 -0.51435,-0.20955 -0.3429,0 -0.5588,0.26035 -0.20954997,0.254 -0.20954997,0.6985 0,0.45085 0.20954997,0.6858 0.2159,0.23495 0.51435,0.23495 0.34925,0 0.5588,-0.28575 0.20955,-0.28575 0.2159,-0.60325 z"
         style="font-style:normal;font-variant:normal;font-weight:600;font-stretch:normal;font-size:6.35px;font-family:'Zilla Slab';-inkscape-font-specification:'Zilla Slab Semi-Bold';fill:#1a1a1a"
         id="path990" />
      <path
         d="m 6.4297476,4.3254083 q -0.0381,0.37465 -0.3683,0.65405 -0.3302,0.2794 -0.90805,0.2794 -0.6223,0 -1.02235,-0.36195 -0.40005,-0.3683 -0.40005,-1.0795 0,-0.65405 0.36195,-1.0922 0.3683,-0.43815 1.02235,-0.43815 0.59055,0 0.93345,0.3556 0.34925,0.34925 0.3556,0.889 0,0.1778 -0.0381,0.381 h -1.92405 q 0.05715,0.8001 0.762,0.8001 0.3302,0 0.4699,-0.15875 0.14605,-0.15875 0.1905,-0.33655 z m -0.7239,-0.83185 q 0.0254,-0.254 -0.12065,-0.47625 -0.1397,-0.2286 -0.47625,-0.2286 -0.3048,0 -0.46355,0.2032 -0.15875,0.2032 -0.19685,0.50165 z"
         style="font-style:normal;font-variant:normal;font-weight:600;font-stretch:normal;font-size:6.35px;font-family:'Zilla Slab';-inkscape-font-specification:'Zilla Slab Semi-Bold';fill:#1a1a1a"
         id="path992" />
      <path
         d="m 11.566885,5.1953583 h -1.20015 v -0.5334 q -0.12065,0.24765 -0.3556,0.42545 -0.2349497,0.17145 -0.6222996,0.17145 -0.56515,0 -0.889,-0.38735 -0.32385,-0.38735 -0.32385,-1.0541 0,-0.64135 0.3175,-1.0922 0.3175,-0.45085 0.9588499,-0.45085 0.34925,0 0.5714997,0.1397 0.22225,0.1397 0.3429,0.3556 v -1.3208 H 9.7952353 V 0.82655834 H 11.185885 V 4.5794083 h 0.381 z m -1.20015,-1.4478 v -0.06985 q 0,-0.3556 -0.1905,-0.55245 -0.1841497,-0.2032 -0.4635497,-0.2032 -0.27305,0 -0.4825999,0.2032 -0.2032,0.2032 -0.2032,0.64135 0,0.41275 0.1905,0.62865 0.1904999,0.2159 0.4508499,0.2159 0.32385,0 0.5079997,-0.27305 0.1905,-0.27305 0.1905,-0.59055 z"
         style="font-style:normal;font-variant:normal;font-weight:bold;font-stretch:normal;font-size:6.35px;font-family:'Zilla Slab';-inkscape-font-specification:'Zilla Slab Bold';fill:#007589;fill-opacity:1;stroke-width:0.0264583"
         id="path994" />
      <path
         d="m 12.087583,2.5347083 q 0.37465,-0.1524 0.6223,-0.2032 0.254,-0.05715 0.60325,-0.05715 0.46355,0 0.8001,0.2413 0.33655,0.2413 0.33655,0.73025 v 1.2446 q 0,0.22225 0.19685,0.22225 0.05715,0 0.12065,-0.01905 l 0.0063,0.4318 q -0.24765,0.13335 -0.51435,0.13335 -0.56515,0 -0.62865,-0.56515 v -0.00635 q -0.12065,0.2159 -0.34925,0.3937 -0.22225,0.1778 -0.5715,0.1778 -0.31115,0 -0.5969,-0.18415 -0.28575,-0.18415 -0.28575,-0.635 0,-0.52705 0.4191,-0.6985 0.42545,-0.17145 0.9144,-0.17145 0.27305,0 0.4699,0.0254 v -0.09525 q 0,-0.22225 -0.0635,-0.4318 -0.05715,-0.20955 -0.4064,-0.20955 -0.127,0 -0.23495,0.01905 -0.1016,0.0127 -0.2032,0.0635 l -0.10795,0.4064 -0.65405,-0.06985 z m 1.54305,1.49225 v -0.0381 q -0.1016,-0.0127 -0.20955,-0.0254 -0.1016,-0.0127 -0.2032,-0.0127 -0.2159,0 -0.381,0.08255 -0.1651,0.0762 -0.1651,0.31115 0,0.1397 0.0762,0.23495 0.0762,0.09525 0.26035,0.09525 0.2159,0 0.40005,-0.1524 0.1905,-0.15875 0.22225,-0.4953 z"
         style="font-style:normal;font-variant:normal;font-weight:bold;font-stretch:normal;font-size:6.35px;font-family:'Zilla Slab';-inkscape-font-specification:'Zilla Slab Bold';fill:#007589;fill-opacity:1;stroke-width:0.0264583"
         id="path996" />
      <path
         d="m 17.446974,4.3063583 q -0.0635,0.4953 -0.3429,0.7239 -0.2794,0.2286 -0.7239,0.2286 -0.476249,0 -0.774699,-0.23495 -0.2921,-0.2413 -0.2921,-0.6858 v -1.4224 h -0.4064 v -0.5842 h 0.4064 v -0.86995 h 0.81915 v 0.86995 h 1.028699 v 0.5842 h -1.028699 v 1.2827 q 0,0.37465 0.342899,0.37465 0.0762,0 0.2032,-0.0635 0.13335,-0.06985 0.17145,-0.38735 z"
         style="font-style:normal;font-variant:normal;font-weight:bold;font-stretch:normal;font-size:6.35px;font-family:'Zilla Slab';-inkscape-font-specification:'Zilla Slab Bold';fill:#007589;fill-opacity:1;stroke-width:0.0264583"
         id="path998" />
      <path
         d="m 17.827966,2.5347083 q 0.37465,-0.1524 0.6223,-0.2032 0.254,-0.05715 0.60325,-0.05715 0.46355,0 0.8001,0.2413 0.33655,0.2413 0.33655,0.73025 v 1.2446 q 0,0.22225 0.19685,0.22225 0.05715,0 0.12065,-0.01905 l 0.0064,0.4318 q -0.24765,0.13335 -0.51435,0.13335 -0.56515,0 -0.62865,-0.56515 v -0.00635 q -0.12065,0.2159 -0.34925,0.3937 -0.22225,0.1778 -0.5715,0.1778 -0.31115,0 -0.5969,-0.18415 -0.28575,-0.18415 -0.28575,-0.635 0,-0.52705 0.4191,-0.6985 0.42545,-0.17145 0.9144,-0.17145 0.27305,0 0.4699,0.0254 v -0.09525 q 0,-0.22225 -0.0635,-0.4318 -0.05715,-0.20955 -0.4064,-0.20955 -0.127,0 -0.23495,0.01905 -0.1016,0.0127 -0.2032,0.0635 l -0.10795,0.4064 -0.65405,-0.06985 z m 1.54305,1.49225 v -0.0381 q -0.1016,-0.0127 -0.20955,-0.0254 -0.1016,-0.0127 -0.2032,-0.0127 -0.2159,0 -0.381,0.08255 -0.1651,0.0762 -0.1651,0.31115 0,0.1397 0.0762,0.23495 0.0762,0.09525 0.26035,0.09525 0.2159,0 0.40005,-0.1524 0.1905,-0.15875 0.22225,-0.4953 z"
         style="font-style:normal;font-variant:normal;font-weight:bold;font-stretch:normal;font-size:6.35px;font-family:'Zilla Slab';-inkscape-font-specification:'Zilla Slab Bold';fill:#007589;fill-opacity:1;stroke-width:0.0264583"
         id="path1000" />
      <path
         d="m 23.860459,2.8649083 h -0.31115 l -1.02235,2.33045 h -0.4953 l -1.0795,-2.33045 h -0.3175 v -0.5207 h 1.397 v 0.5207 h -0.34925 l 0.64135,1.4478 h 0.0381 l 0.5334,-1.4478 h -0.3175 v -0.5207 h 1.2827 z"
         style="font-style:normal;font-variant:normal;font-weight:600;font-stretch:normal;font-size:6.35px;font-family:'Zilla Slab';-inkscape-font-specification:'Zilla Slab Semi-Bold';fill:#1a1a1a;stroke-width:0.0264583"
         id="path1002" />
      <path
         d="m 26.679845,4.3254083 q -0.0381,0.37465 -0.3683,0.65405 -0.3302,0.2794 -0.90805,0.2794 -0.6223,0 -1.02235,-0.36195 -0.40005,-0.3683 -0.40005,-1.0795 0,-0.65405 0.36195,-1.0922 0.3683,-0.43815 1.02235,-0.43815 0.59055,0 0.93345,0.3556 0.34925,0.34925 0.3556,0.889 0,0.1778 -0.0381,0.381 h -1.92405 q 0.05715,0.8001 0.762,0.8001 0.3302,0 0.4699,-0.15875 0.14605,-0.15875 0.1905,-0.33655 z m -0.7239,-0.83185 q 0.0254,-0.254 -0.12065,-0.47625 -0.1397,-0.2286 -0.47625,-0.2286 -0.3048,0 -0.46355,0.2032 -0.15875,0.2032 -0.19685,0.50165 z"
         style="font-style:normal;font-variant:normal;font-weight:600;font-stretch:normal;font-size:6.35px;font-family:'Zilla Slab';-inkscape-font-specification:'Zilla Slab Semi-Bold';fill:#1a1a1a;stroke-width:0.0264583"
         id="path1004" />
      <path
         d="m 28.768986,2.2997583 q 0.28575,0 0.5334,0.15875 l 0.12065,0.889 -0.52705,0.0635 -0.10795,-0.48895 q -0.127,-0.0635 -0.2159,-0.0635 -0.1778,0 -0.31115,0.14605 -0.127,0.14605 -0.127,0.4064 v 1.26365 h 0.56515 v 0.5207 h -1.67005 v -0.5207 h 0.42545 v -1.8034 h -0.4445 v -0.52705 h 1.07315 v 0.5334 q 0.0762,-0.2413 0.2413,-0.4064 0.17145,-0.17145 0.4445,-0.17145 z"
         style="font-style:normal;font-variant:normal;font-weight:600;font-stretch:normal;font-size:6.35px;font-family:'Zilla Slab';-inkscape-font-specification:'Zilla Slab Semi-Bold';fill:#1a1a1a;stroke-width:0.0264583"
         id="path1006" />
      <path
         d="m 32.877427,3.7031083 q 0,0.60325 -0.3175,1.0795 -0.3175,0.47625 -0.9779,0.47625 -0.6731,0 -0.94615,-0.508 -0.0127,0.0762 -0.03175,0.22225 -0.01905,0.14605 -0.03175,0.22225 h -0.6731 q 0.0381,-0.20955 0.06985,-0.42545 0.03175,-0.22225 0.03175,-0.4318 v -2.99085 h -0.42545 V 0.82655834 h 1.09855 V 2.9093583 q 0.127,-0.254 0.3556,-0.43815 0.23495,-0.18415 0.62865,-0.18415 0.53975,0 0.8763,0.37465 0.3429,0.3683 0.3429,1.0414 z m -0.70485,0.05715 q 0,-0.45085 -0.2032,-0.6858 -0.2032,-0.2413 -0.5207,-0.2413 -0.36195,0 -0.56515,0.2667 -0.2032,0.2667 -0.20955,0.57785 v 0.2032 q 0,0.34925 0.2032,0.5969 0.20955,0.2413 0.5461,0.2413 0.3556,0 0.55245,-0.26035 0.19685,-0.26035 0.19685,-0.6985 z"
         style="font-style:normal;font-variant:normal;font-weight:600;font-stretch:normal;font-size:6.35px;font-family:'Zilla Slab';-inkscape-font-specification:'Zilla Slab Semi-Bold';fill:#1a1a1a;stroke-width:0.0264583"
         id="path1008" />
      <path
         d="m 33.645768,1.7536583 v -0.7493 h 0.69215 v 0.7493 z m 1.13665,3.4417 h -1.524 v -0.5207 h 0.42545 v -1.8034 h -0.45085 v -0.52705 h 1.12395 v 2.33045 h 0.42545 z"
         style="font-style:normal;font-variant:normal;font-weight:600;font-stretch:normal;font-size:6.35px;font-family:'Zilla Slab';-inkscape-font-specification:'Zilla Slab Semi-Bold';fill:#1a1a1a;stroke-width:0.0264583"
         id="path1010" />
      <path
         d="m 38.554317,5.1953583 h -1.524 v -0.5207 h 0.4191 v -1.1176 q 0,-0.4064 -0.14605,-0.5715 -0.14605,-0.17145 -0.4064,-0.17145 -0.32385,0 -0.51435,0.20955 -0.18415,0.20955 -0.1905,0.51435 v 1.13665 h 0.42545 v 0.5207 h -1.53035 v -0.5207 h 0.42545 v -1.8034 h -0.4445 v -0.52705 h 1.12395 v 0.46355 q 0.29845,-0.5207 0.94615,-0.5207 0.4064,0 0.6985,0.24765 0.2921,0.24765 0.2921,0.7747 v 1.36525 h 0.42545 z"
         style="font-style:normal;font-variant:normal;font-weight:600;font-stretch:normal;font-size:6.35px;font-family:'Zilla Slab';-inkscape-font-specification:'Zilla Slab Semi-Bold';fill:#1a1a1a;stroke-width:0.0264583"
         id="path1012" />
      <path
         d="m 42.103959,5.1953583 h -1.09855 v -0.5461 q -0.127,0.24765 -0.3683,0.4318 -0.23495,0.1778 -0.6223,0.1778 -0.5588,0 -0.889,-0.381 -0.32385,-0.381 -0.32385,-1.04775 0,-0.6096 0.3048,-1.07315 0.31115,-0.4699 0.97155,-0.4699 0.33655,0 0.56515,0.1397 0.23495,0.13335 0.36195,0.36195 v -1.44145 h -0.61595 V 0.82655834 h 1.2954 V 4.6746583 h 0.4191 z m -1.09855,-1.3716 v -0.2159 q -0.0063,-0.3556 -0.2159,-0.56515 -0.20955,-0.20955 -0.51435,-0.20955 -0.3429,0 -0.5588,0.26035 -0.20955,0.254 -0.20955,0.6985 0,0.45085 0.20955,0.6858 0.2159,0.23495 0.51435,0.23495 0.34925,0 0.5588,-0.28575 0.20955,-0.28575 0.2159,-0.60325 z"
         style="font-style:normal;font-variant:normal;font-weight:600;font-stretch:normal;font-size:6.35px;font-family:'Zilla Slab';-inkscape-font-specification:'Zilla Slab Semi-Bold';fill:#1a1a1a;stroke-width:0.0264583"
         id="path1014" />
      <path
         d="m 45.063046,4.3254083 q -0.0381,0.37465 -0.3683,0.65405 -0.3302,0.2794 -0.90805,0.2794 -0.6223,0 -1.02235,-0.36195 -0.40005,-0.3683 -0.40005,-1.0795 0,-0.65405 0.36195,-1.0922 0.3683,-0.43815 1.02235,-0.43815 0.59055,0 0.93345,0.3556 0.34925,0.34925 0.3556,0.889 0,0.1778 -0.0381,0.381 h -1.92405 q 0.05715,0.8001 0.762,0.8001 0.3302,0 0.4699,-0.15875 0.14605,-0.15875 0.1905,-0.33655 z m -0.7239,-0.83185 q 0.0254,-0.254 -0.12065,-0.47625 -0.1397,-0.2286 -0.47625,-0.2286 -0.3048,0 -0.46355,0.2032 -0.15875,0.2032 -0.19685,0.50165 z"
         style="font-style:normal;font-variant:normal;font-weight:600;font-stretch:normal;font-size:6.35px;font-family:'Zilla Slab';-inkscape-font-specification:'Zilla Slab Semi-Bold';fill:#1a1a1a;stroke-width:0.0264583"
         id="path1016" />
      <path
         d="m 47.15219,2.2997583 q 0.28575,0 0.5334,0.15875 l 0.12065,0.889 -0.52705,0.0635 -0.10795,-0.48895 q -0.127,-0.0635 -0.2159,-0.0635 -0.1778,0 -0.31115,0.14605 -0.127,0.14605 -0.127,0.4064 v 1.26365 h 0.56515 v 0.5207 h -1.67005 v -0.5207 h 0.42545 v -1.8034 h -0.4445 v -0.52705 h 1.07315 v 0.5334 q 0.0762,-0.2413 0.2413,-0.4064 0.17145,-0.17145 0.4445,-0.17145 z"
         style="font-style:normal;font-variant:normal;font-weight:600;font-stretch:normal;font-size:6.35px;font-family:'Zilla Slab';-inkscape-font-specification:'Zilla Slab Semi-Bold';fill:#1a1a1a;stroke-width:0.0264583"
         id="path1018" />
      <path
         d="m 50.651032,4.3444583 q 0,0.4445 -0.3683,0.67945 -0.36195,0.23495 -0.9271,0.23495 -0.3048,0 -0.61595,-0.06985 -0.3048,-0.06985 -0.55245,-0.20955 l 0.1016,-0.7366 0.5334,0.0508 -0.0063,0.3683 q 0.12065,0.0508 0.254,0.06985 0.1397,0.01905 0.24765,0.01905 0.26035,0 0.45085,-0.0889 0.19685,-0.09525 0.19685,-0.2794 0,-0.1778 -0.1778,-0.254 -0.17145,-0.0762 -0.4318,-0.1143 -0.26035,-0.04445 -0.5207,-0.1143 -0.26035,-0.0762 -0.43815,-0.2413 -0.17145,-0.17145 -0.17145,-0.508 0,-0.4953 0.37465,-0.67945 0.381,-0.18415 0.8001,-0.18415 0.55245,0 1.0414,0.26035 l 0.06985,0.70485 -0.5334,0.0635 -0.05715,-0.42545 q -0.24765,-0.09525 -0.50165,-0.09525 -0.19685,0 -0.33655,0.08255 -0.13335,0.0762 -0.13335,0.24765 0,0.1778 0.17145,0.24765 0.17145,0.06985 0.42545,0.1143 0.254,0.0381 0.508,0.1143 0.254,0.06985 0.42545,0.2413 0.17145,0.1651 0.17145,0.50165 z"
         style="font-style:normal;font-variant:normal;font-weight:600;font-stretch:normal;font-size:6.35px;font-family:'Zilla Slab';-inkscape-font-specification:'Zilla Slab Semi-Bold';fill:#1a1a1a;stroke-width:0.0264583"
         id="path1020" />
    </g>
  </g>
</svg>
